<?xml version="1.0" encoding="UTF-8"?>
<svg id="Livello_1" data-name="Livello 1" xmlns="http://www.w3.org/2000/svg" viewBox="0 0 2560 383.06">
  <defs>
    <style>
      .cls-1 {
        fill: #1c5f8c;
      }

      .cls-2 {
        fill: #081d28;
      }
    </style>
  </defs>
  <rect class="cls-1" y="326.91" width="215.93" height="56.14"/>
  <path class="cls-2" d="M457.76,110.92c-6.17-6.13-13.44-11.22-21.81-15.26-13.39-6.48-28.72-9.72-45.99-9.72-22.46,0-42.75,5.47-60.89,16.41-18.14,10.94-32.54,25.7-43.19,44.27-10.66,18.57-15.98,39.37-15.98,62.4s5.25,43.48,15.76,62.19c10.51,18.72,24.83,33.54,42.97,44.48,18.14,10.95,38.72,16.41,61.76,16.41,16.12,0,31.09-2.95,44.91-8.85,10.64-4.54,19.55-10.77,26.78-18.64v22.31h60.46V0h-64.78v110.92ZM450.2,242.7c-5.04,9.79-12.02,17.42-20.94,22.89-8.93,5.47-19.29,8.21-31.09,8.21s-22.39-2.73-31.74-8.21c-9.36-5.47-16.63-13.1-21.81-22.89-5.18-9.78-7.77-21.01-7.77-33.68s2.59-23.82,7.77-33.47c5.18-9.64,12.45-17.27,21.81-22.89,9.35-5.61,19.93-8.42,31.74-8.42s22.17,2.74,31.09,8.21c8.92,5.47,15.9,13.1,20.94,22.89,5.03,9.79,7.56,21.02,7.56,33.69s-2.52,23.9-7.56,33.68Z"/>
  <path class="cls-2" d="M725.94,96.73c-15.26-7.19-32.82-10.8-52.69-10.8-16.7,0-32.11,2.59-46.21,7.78-14.11,5.18-26.2,12.52-36.28,22.02-10.08,9.5-17.42,20.88-22.02,34.12l51.82,24.62c4.03-10.36,10.43-18.71,19.22-25.05,8.78-6.33,18.93-9.5,30.45-9.5,12.09,0,21.66,3.02,28.72,9.07,7.05,6.05,10.58,13.54,10.58,22.46v6.3l-65.21,10.54c-18.72,2.88-34.33,7.77-46.86,14.68-12.52,6.91-21.81,15.48-27.85,25.7-6.05,10.22-9.07,21.96-9.07,35.2,0,14.11,3.31,26.28,9.93,36.49,6.62,10.22,16.12,18.07,28.5,23.54,12.38,5.47,27.06,8.21,44.05,8.21,12.67,0,24.18-1.66,34.55-4.97,10.36-3.31,19.72-8.35,28.07-15.11,2.82-2.28,5.55-4.79,8.21-7.49v22.39h60.46v-155.47c0-16.98-4.25-31.88-12.74-44.7-8.49-12.81-20.37-22.81-35.63-30.02ZM702.84,258.9c-4.47,7.92-10.73,14.18-18.79,18.79-8.06,4.61-17.42,6.91-28.07,6.91-8.06,0-14.83-2.01-20.3-6.05-5.47-4.03-8.21-9.64-8.21-16.84,0-7.77,2.44-13.74,7.34-17.92,4.89-4.17,11.94-7.13,21.16-8.85l53.55-9.56v7.4c0,9.5-2.23,18.21-6.69,26.13Z"/>
  <polygon class="cls-2" points="919.41 232.37 868.45 91.12 798.49 91.12 891.34 326.91 947.48 326.91 1040.33 91.12 970.37 91.12 919.41 232.37"/>
  <path class="cls-2" d="M1184.13,197.36l-38-11.23c-4.61-1.44-9.36-3.24-14.25-5.4-4.9-2.16-9.07-5.32-12.52-9.5-3.45-4.17-5.18-9.43-5.18-15.76,0-9.21,3.45-16.69,10.36-22.46,6.91-5.75,16.26-8.64,28.07-8.64,12.96,0,24.62,3.45,34.98,10.36,10.36,6.91,18.14,16.41,23.32,28.5l32.82-15.12c-6.91-18.71-18.5-33.25-34.76-43.62-16.27-10.37-34.62-15.55-55.06-15.55-15.26,0-29.01,2.88-41.24,8.64-12.24,5.76-21.88,13.75-28.93,23.97-7.06,10.22-10.58,22.24-10.58,36.06,0,14.97,4.82,28.14,14.47,39.52,9.64,11.37,24.83,19.94,45.56,25.69l34.98,9.93c4.89,1.15,10,2.96,15.33,5.4,5.32,2.45,9.93,5.76,13.82,9.93,3.89,4.18,5.83,9.72,5.83,16.63,0,9.79-4.18,17.71-12.52,23.75-8.35,6.05-18.72,9.07-31.09,9.07-14.11,0-26.92-4.03-38.44-12.09-11.52-8.06-20.59-19-27.21-32.82l-32.39,15.55c7.48,19.58,19.86,35.13,37.14,46.64,17.27,11.52,37.57,17.27,60.89,17.27,16.69,0,31.38-2.88,44.05-8.64,12.67-5.76,22.6-13.82,29.8-24.18,7.19-10.37,10.8-22.03,10.8-34.98,0-16.12-5.26-29.94-15.76-41.46-10.51-11.51-25.26-20.01-44.27-25.48Z"/>
  <path class="cls-2" d="M1399.62,292.8c-9.5,0-17.13-1.65-22.89-4.97-5.76-3.31-9.87-7.84-12.31-13.61-2.45-5.75-3.67-12.52-3.67-20.3v-121.35h52.25v-38.44h-52.25v-53.55h-40.59v19c0,10.36-2.96,18.72-8.85,25.05-5.9,6.34-14.04,9.5-24.4,9.5h-8.64v38.44h41.89v122.65c0,23.61,6.19,41.89,18.57,54.85,12.38,12.95,29.94,19.43,52.69,19.43,3.17,0,7.05-.22,11.66-.65,4.6-.43,8.78-1.08,12.52-1.94v-35.41c-2.59.29-5.4.58-8.42.86-3.02.29-5.55.43-7.56.43Z"/>
  <path class="cls-2" d="M1615.55,231.9c0,12.67-2.38,23.61-7.13,32.82-4.75,9.22-11.38,16.27-19.87,21.16-8.49,4.9-18.21,7.34-29.15,7.34s-20.66-2.44-29.15-7.34c-8.5-4.89-15.12-11.66-19.87-20.3-4.75-8.64-7.13-18.71-7.13-30.23V94.14h-40.59v145.54c0,18.14,3.74,34.19,11.23,48.15,7.48,13.97,17.85,24.83,31.09,32.6,13.24,7.78,28.35,11.66,45.34,11.66s31.96-4.1,44.91-12.31c9.03-5.72,16.2-13.05,21.59-21.91v29.04h39.3V94.14h-40.59v137.76Z"/>
  <path class="cls-2" d="M1904.45,125.24c-7.77-9.65-17.41-17.65-28.93-23.97-14.97-8.21-32.11-12.31-51.39-12.31-22.17,0-41.89,5.33-59.16,15.98-17.27,10.66-31.02,25.12-41.24,43.4-10.22,18.29-15.33,39.08-15.33,62.4s5.03,43.33,15.11,61.75c10.08,18.43,23.89,32.97,41.46,43.62,17.56,10.65,37.28,15.98,59.16,15.98,19,0,36.2-4.1,51.61-12.31,12.39-6.6,22.37-15.63,30.01-26.99v34.11h39.3V0h-40.59v125.24ZM1894.3,252.85c-6.77,12.52-15.98,22.39-27.64,29.58-11.66,7.2-24.69,10.8-39.08,10.8s-27.79-3.59-39.3-10.8c-11.52-7.19-20.59-17.06-27.21-29.58-6.63-12.52-9.93-26.56-9.93-42.11s3.31-29.94,9.93-42.32c6.62-12.38,15.76-22.17,27.42-29.37,11.66-7.19,24.68-10.8,39.08-10.8s27.42,3.61,39.08,10.8c11.66,7.2,20.87,16.99,27.64,29.37,6.76,12.38,10.15,26.49,10.15,42.32s-3.39,29.58-10.15,42.11Z"/>
  <rect class="cls-2" x="2006.8" y="5.18" width="40.59" height="51.82"/>
  <rect class="cls-2" x="2006.8" y="94.14" width="40.59" height="232.77"/>
  <path class="cls-2" d="M2281.03,104.72c-18.14-10.51-38.58-15.76-61.32-15.76s-42.75,5.33-60.89,15.98c-18.14,10.66-32.54,25.05-43.19,43.19-10.66,18.14-15.98,38.87-15.98,62.19s5.4,44.2,16.19,62.62c10.8,18.43,25.26,32.89,43.4,43.4,18.14,10.51,38.29,15.76,60.46,15.76s42.25-5.25,60.24-15.76c17.99-10.51,32.46-24.9,43.4-43.19,10.94-18.28,16.41-39.23,16.41-62.84s-5.26-44.48-15.76-62.62c-10.51-18.14-24.83-32.46-42.97-42.97ZM2286.86,252.63c-6.77,12.67-15.98,22.61-27.64,29.8-11.66,7.2-24.83,10.8-39.51,10.8s-27.42-3.59-39.08-10.8c-11.66-7.19-20.94-17.12-27.85-29.8-6.91-12.66-10.36-26.77-10.36-42.32s3.45-29.51,10.36-41.89c6.91-12.38,16.19-22.17,27.85-29.37,11.66-7.19,24.68-10.8,39.08-10.8s27.85,3.61,39.51,10.8c11.66,7.2,20.87,16.99,27.64,29.37,6.76,12.38,10.15,26.34,10.15,41.89s-3.39,29.66-10.15,42.32Z"/>
  <path class="cls-2" d="M2544.24,222.84c-10.51-11.51-25.26-20.01-44.27-25.48l-38-11.23c-4.61-1.44-9.36-3.24-14.25-5.4-4.9-2.16-9.07-5.32-12.52-9.5-3.45-4.17-5.18-9.43-5.18-15.76,0-9.21,3.45-16.69,10.36-22.46,6.91-5.75,16.26-8.64,28.07-8.64,12.96,0,24.62,3.45,34.98,10.36,10.36,6.91,18.14,16.41,23.32,28.5l32.82-15.12c-6.91-18.71-18.5-33.25-34.76-43.62-16.27-10.37-34.62-15.55-55.06-15.55-15.26,0-29.01,2.88-41.24,8.64-12.24,5.76-21.88,13.75-28.93,23.97-7.06,10.22-10.58,22.24-10.58,36.06,0,14.97,4.82,28.14,14.47,39.52,9.64,11.37,24.83,19.94,45.56,25.69l34.98,9.93c4.89,1.15,10,2.96,15.33,5.4,5.32,2.45,9.93,5.76,13.82,9.93,3.89,4.18,5.83,9.72,5.83,16.63,0,9.79-4.18,17.71-12.52,23.75-8.35,6.05-18.72,9.07-31.09,9.07-14.11,0-26.92-4.03-38.44-12.09-11.52-8.06-20.59-19-27.21-32.82l-32.39,15.55c7.48,19.58,19.86,35.13,37.14,46.64,17.27,11.52,37.57,17.27,60.89,17.27,16.69,0,31.38-2.88,44.05-8.64,12.67-5.76,22.6-13.82,29.8-24.18,7.19-10.37,10.8-22.03,10.8-34.98,0-16.12-5.26-29.94-15.76-41.46Z"/>
</svg>