<?xml version="1.0" encoding="UTF-8"?>
<svg id="Livello_1" data-name="Livello 1" xmlns="http://www.w3.org/2000/svg" viewBox="0 0 1440 1440">
  <defs>
    <style>
      .cls-1 {
        fill: #f5f5f7;
      }

      .cls-2 {
        fill: #1c5f8c;
      }
    </style>
  </defs>
  <rect class="cls-1" x="0" y="0" width="1440" height="1440" rx="720" ry="720"/>
  <g>
    <path class="cls-2" d="M975.92,958.23c34.24,60.16,5.78,131.06-55.83,159.42-29.86,13.74-62.74,18.63-97.23,15.09-143.79-14.76-265.47-110.3-315.75-246.05-139.6-361.58,251.35-740.16,589.77-510.6,93.22,66.04,141.01,177.73,118.83,289.85-16.77,84.78-80.48,150.77-163.51,170.48l-96.26,22.85c-13.81,3.28-24.91,20.09-17.77,32.63,0,0,37.75,66.33,37.75,66.33ZM918.33,969.53l-31.1-53.56c-18.35-39.94-1.76-84.95,38.65-104.3,29.16-13.97,60.81-19.58,93.09-25.26,86.78-15.29,148.36-86.72,145.28-175.28-3.3-94.85-58.55-176.23-145.86-215.9-326.28-142.24-605.89,245.02-428.14,530.85,57.74,95.25,159.56,152.51,270.17,150.53,28.41-.51,54.69-17.65,66.55-41.15,10.96-21.71,3.37-45.24-8.63-65.91Z"/>
    <path class="cls-2" d="M488.52,1072.46l.51,58.05-61.92-.56c-63.77-.58-113.71-49.34-114.63-113.45l-2.82-197.62c-.69-48.09-42.04-67.27-90.75-69.43l1.13-58.23c51.2,3.4,91.23-31.6,91.3-80.57l.25-173.64c.1-68.21,45.87-125.26,116.36-126.57l63.54-1.18-.25,60.35-67.57.97c-27.7.4-46.78,28.67-48.77,55.15l-3.21,204.9c-.58,37.19-24.63,67.19-54.83,88.8,41.19,27.76,57.11,69.74,57.39,116.43l1.04,177.54c.21,35.62,26.85,59.08,61.68,59.08h51.55Z"/>
  </g>
</svg>